PathFileType   4   (X/Y/Z)
DataRate	CameraRate	NumFrames	NumMarkers	Units	OrigDataRate	OrigDataStartFrame	OrigNumFrames
120.0	120.0	6	37	mm	120.0	23	182
Frame#	Time	midhip	hip_r	hip_l	knee_r	knee_l	ankle_r	ankle_l	midasis	asis_r	asis_l	psis_r	psis_l	epicondLat_r	epicondLat_l	epicondMed_r	epicondMed_l	malleolusLat_r	malleolusLat_l	malleolusMedv_r	malleolusMedv_l	neck	subclavicle_r	subclavicle_l	sternalnotch	xyphoidprocess	thighwand_r	thighwand_l	upperleg1_r	upperleg1_l	upperleg2_r	upperleg2_l	shankwand_r	shankwand_l	lowerleg1_r	lowerleg1_l	toe_r	toe_l
 	 	X1	Y1	Z1	X2	Y2	Z2	X3	Y3	Z3	X4	Y4	Z4	X5	Y5	Z5	X6	Y6	Z6	X7	Y7	Z7	X8	Y8	Z8	X9	Y9	Z9	X10	Y10	Z10	X11	Y11	Z11	X12	Y12	Z12	X13	Y13	Z13	X14	Y14	Z14	X15	Y15	Z15	X16	Y16	Z16	X17	Y17	Z17	X18	Y18	Z18	X19	Y19	Z19	X20	Y20	Z20	X21	Y21	Z21	X22	Y22	Z22	X23	Y23	Z23	X24	Y24	Z24	X25	Y25	Z25	X26	Y26	Z26	X27	Y27	Z27	X28	Y28	Z28	X29	Y29	Z29	X30	Y30	Z30	X31	Y31	Z31	X32	Y32	Z32	X33	Y33	Z33	X34	Y34	Z34	X35	Y35	Z35	X36	Y36	Z36	X37	Y37	Z37

	23	0.44167	-807.913	905.937	267.099	-809.743	895.617	315.930	-806.308	895.225	209.416	-733.155	488.614	337.619	-766.390	484.322	211.695	-935.982	125.973	371.624	-809.912	67.742	235.280	-728.290	991.404	264.892	-731.644	991.787	368.912	-724.935	991.022	160.872	-929.794	1019.456	300.723	-927.522	1020.758	215.393	-726.441	493.019	396.575	-758.174	484.793	152.767	-727.101	491.742	277.779	-790.268	486.166	258.332	-942.057	132.829	408.504	-808.803	65.395	195.865	-935.337	132.323	338.988	-804.785	77.916	264.716	-834.858	1475.506	243.774	-745.362	1399.449	329.534	-744.756	1395.902	173.520	-757.212	1399.937	247.465	-736.642	1196.005	245.435	-713.737	594.571	476.682	-633.765	619.817	207.550	-698.898	657.344	404.779	-706.677	673.260	159.781	-685.904	576.625	384.261	-713.953	586.046	166.743	-896.915	203.966	470.339	-697.194	175.298	244.192	-881.771	255.256	403.956	-758.813	227.094	222.441	-835.764	65.611	371.479	-681.099	42.890	241.700
	24	0.45000	-803.434	906.411	267.399	-805.794	895.861	315.935	-802.446	895.160	209.420	-725.208	489.656	337.227	-764.433	484.110	211.995	-920.295	122.456	370.310	-809.986	67.801	235.558	-724.422	991.532	264.551	-727.692	992.216	368.598	-721.151	990.847	160.504	-925.789	1019.569	300.570	-923.390	1020.637	215.131	-718.638	494.051	396.199	-756.179	484.504	153.071	-719.843	492.591	277.766	-788.165	485.916	258.701	-926.549	129.102	407.198	-808.730	65.433	196.149	-920.012	128.997	337.671	-804.902	77.825	264.972	-830.910	1475.631	243.327	-741.472	1399.428	329.230	-740.699	1395.931	173.158	-753.233	1399.949	247.120	-732.776	1196.006	245.044	-707.053	595.556	476.512	-631.312	618.970	207.843	-693.096	658.461	404.682	-704.187	672.658	159.914	-679.299	577.948	384.151	-711.627	585.569	166.988	-882.990	201.098	469.232	-696.815	174.747	244.888	-869.083	252.898	403.012	-758.127	226.799	222.865	-818.516	64.950	370.204	-681.167	42.898	241.853
	25	0.45833	-799.037	906.750	267.713	-801.844	896.084	315.961	-798.573	895.082	209.446	-717.316	490.681	336.877	-762.445	483.888	212.286	-904.346	118.972	369.028	-810.075	67.858	235.808	-720.552	991.645	264.247	-723.748	992.624	368.314	-717.356	990.667	160.179	-921.780	1019.641	300.414	-919.212	1020.506	214.876	-710.924	495.058	395.871	-754.123	484.212	153.372	-712.861	493.625	277.682	-785.912	485.502	258.824	-910.792	125.406	405.920	-808.664	65.469	196.406	-904.178	125.662	336.368	-805.315	77.721	265.163	-826.902	1475.724	242.923	-737.559	1399.387	328.894	-736.698	1395.939	172.827	-749.271	1399.945	246.780	-729.004	1195.984	244.651	-700.502	596.512	476.386	-628.845	618.166	208.215	-687.199	659.589	404.681	-701.682	672.248	160.242	-672.806	579.226	384.066	-709.223	585.145	167.236	-868.915	198.243	468.147	-696.458	174.190	245.578	-856.300	250.540	402.048	-757.326	226.562	223.327	-801.184	64.339	368.689	-681.210	42.913	242.009
	26	0.46667	-795.243	906.582	267.598	-797.891	896.273	316.006	-794.678	894.985	209.492	-709.596	491.645	336.541	-760.433	483.652	212.572	-888.258	115.558	367.761	-810.175	67.908	236.046	-716.692	991.749	263.987	-719.831	993.007	368.067	-713.554	990.491	159.907	-917.841	1019.660	300.217	-915.343	1020.368	214.637	-703.407	495.990	395.558	-752.011	483.912	153.671	-705.993	494.689	277.554	-784.028	485.304	258.763	-894.880	121.767	404.661	-808.607	65.496	196.651	-888.448	122.416	335.119	-805.483	77.673	265.378	-822.928	1475.790	242.606	-733.679	1399.362	328.576	-732.746	1395.944	172.562	-745.351	1399.945	246.483	-725.240	1195.969	244.325	-694.149	597.407	476.309	-626.359	617.398	208.667	-681.410	660.670	404.738	-698.818	671.956	160.717	-666.452	580.453	384.006	-706.760	584.744	167.521	-854.714	195.416	467.088	-696.122	173.622	246.260	-843.372	248.172	401.093	-756.479	226.298	223.731	-783.806	63.805	366.984	-681.219	42.926	242.177
	27	0.47500	-791.422	906.390	267.912	-793.952	896.427	316.054	-790.770	894.877	209.543	-702.026	492.540	336.213	-758.417	483.402	212.857	-872.088	112.247	366.505	-810.272	67.945	236.282	-712.850	991.843	263.774	-715.959	993.357	367.855	-709.742	990.328	159.693	-913.997	1019.639	300.030	-911.303	1020.168	214.430	-696.062	496.844	395.256	-749.863	483.601	153.975	-699.332	495.928	277.347	-782.341	485.356	258.895	-878.850	118.212	403.420	-808.551	65.510	196.894	-872.811	119.312	333.898	-805.388	77.655	265.624	-819.083	1475.775	242.310	-729.871	1399.350	328.279	-728.880	1395.941	172.340	-741.513	1399.938	246.219	-721.397	1195.962	244.060	-687.966	598.235	476.282	-623.846	616.658	209.199	-675.485	661.747	404.889	-695.853	671.618	161.092	-660.183	581.626	383.990	-704.304	584.321	167.872	-840.371	192.629	466.048	-695.788	173.041	246.933	-830.422	245.851	400.222	-755.597	226.028	224.059	-766.402	63.370	365.151	-681.208	42.924	242.352
	28	0.48333	-787.398	906.393	267.841	-790.031	896.556	316.121	-786.862	894.762	209.613	-694.540	493.379	335.898	-756.409	483.132	213.148	-855.848	109.065	365.260	-810.348	67.966	236.514	-709.017	991.919	263.608	-712.114	993.672	367.690	-705.921	990.165	159.526	-910.065	1019.580	299.805	-907.400	1019.980	214.244	-688.814	497.633	394.969	-747.702	483.271	154.289	-692.354	497.119	277.097	-780.386	485.340	259.196	-862.706	114.766	402.199	-808.480	65.507	197.135	-856.913	116.325	332.646	-805.332	77.561	265.886	-815.205	1475.697	242.044	-726.141	1399.340	328.016	-725.021	1395.900	172.140	-737.715	1399.913	245.977	-717.618	1195.935	243.876	-681.884	599.003	476.301	-621.303	615.933	209.796	-669.584	662.781	405.035	-692.946	671.211	161.453	-653.840	582.789	383.997	-701.743	583.909	168.293	-825.865	189.902	465.028	-695.424	172.454	247.591	-817.436	243.554	399.391	-754.334	225.888	224.558	-749.001	63.035	363.248	-681.201	42.895	242.525
